<svg style="display: none;">
	<symbol id="icon-plus" viewBox="0 0 12 12">
		<g>
			<path d="M10.8 4.8H7.2V1.2C7.2 0.5373 6.6627 0 6 0C5.3373 0 4.8 0.5373 4.8 1.2V4.8H1.2C0.5373 4.8 0 5.3373 0 6C0 6.6627 0.5373 7.2 1.2 7.2H4.8V10.8C4.8 11.4627 5.3373 12 6 12C6.6627 12 7.2 11.4627 7.2 10.8V7.2H10.8C11.4627 7.2 12 6.6627 12 6C12 5.3373 11.4627 4.8 10.8 4.8Z"/>
		</g>
	</symbol>

	<symbol id="icon-minus" viewBox="0 0 10 2">
		<g>
			<path d="M4.04019 0.0399933H8.84019C9.37035 0.0399933 9.80019 0.469833 9.80019 0.999993C9.80019 1.53015 9.37035 1.95999 8.84019 1.95999H4.04019H1.1602C0.630035 1.95999 0.200195 1.53015 0.200195 0.999993C0.200195 0.469833 0.630035 0.0399933 1.1602 0.0399933H4.04019Z"/>
		</g>
	</symbol>

	<symbol id="icon-logo" viewBox="0 0 38 38">
		<g>
			<path d="M6.00878 14.0303C6.00878 14.0303 4.3819 15.0545 4.19487 16.0758C4.00784 17.1 4.3819 18.3083 4.89253 19.098C5.40315 19.8876 6.00878 20.5408 6.75393 20.8198C7.49909 21.0989 8.14925 21.0514 8.14925 21.0514C8.14925 21.0514 9.87112 23.0048 12.9378 25.6559C16.0046 28.307 19.9144 31.4687 24.3319 33.9328C28.7494 36.3969 30.3317 37.0025 31.54 37.0025C32.7483 37.0025 32.7038 35.1886 32.5642 34.6305C32.4247 34.0723 24.6585 25.4244 24.6585 25.4244L6.00878 14.0303Z" fill="#FF8E00"/>
			<path d="M9.26548 18.5428L8.10173 17.287C8.10173 17.287 6.89345 15.007 5.7772 15.007C4.66095 15.007 4.19485 16.0758 4.19485 16.0758C4.19485 16.0758 4.05532 14.912 5.45064 12.6825C6.84595 10.453 8.61235 8.68359 10.1947 7.56734C11.777 6.45109 13.7275 5.14781 15.0308 4.40562C16.3341 3.66343 19.1692 2.73125 20.7991 2.17312C22.4259 1.615 25.9617 0.917341 27.5886 1.2439C29.2155 1.57047 29.9131 2.68672 29.9131 3.8475C29.9131 5.00828 29.6341 5.80094 29.4025 6.0325C29.1709 6.26406 27.6361 7.56734 27.6361 7.56734L9.26548 18.5428Z" fill="#F5B03E"/>
			<path d="M12.5281 13.6414L9.64548 15.5028L8.43719 17.8749C8.43719 17.8749 8.66876 18.6645 9.04282 19.0831C9.41391 19.5017 12.5281 22.4853 14.7577 24.3913C16.4974 25.8786 20.2053 29.0344 20.2053 29.0344C20.2053 29.0344 20.3567 30.6197 20.5319 31.733C20.6714 32.6177 20.6803 34.0931 21.6125 34.0516C22.7881 33.9981 22.1113 31.6172 23.0434 31.6409C24.9049 31.6884 23.0583 36.7234 25.0592 36.6967C26.6534 36.6759 25.6411 33.9239 26.4397 33.4549C26.8731 33.1995 27.7341 34.2831 29.1383 34.8977C30.872 35.6547 31.9289 36.2277 32.487 35.9664C33.6656 35.4142 31.1808 22.5388 30.9017 20.3538C30.6227 18.1688 29.2333 6.94688 29.1383 6.57579C29.0433 6.2047 27.1374 6.1572 27.1374 6.1572L24.2072 7.18142L20.0213 7.73954L15.0931 10.6697L12.5281 13.6414V13.6414Z" fill="#FFCC8A"/>
			<path d="M11.8008 13.1753C10.8864 13.6919 9.70782 13.9798 8.71328 15.6186C7.885 16.9842 7.66532 18.3825 8.2561 18.4894C8.84688 18.5962 9.29516 16.5359 10.0819 15.7522C11.3436 14.4905 12.3648 14.3569 13.0892 13.6859C13.8136 13.015 14.6063 11.1922 17.6255 9.58015C21.1434 7.70093 23.2453 8.19671 24.0677 7.88796C25.1423 7.48421 25.4333 6.82515 26.7781 6.54608C28.2002 6.25218 29.1888 6.81921 29.1888 6.81921C29.1888 6.81921 29.5123 6.06811 29.0819 5.7178C28.6514 5.36749 27.8588 5.09436 26.5347 5.36452C25.0859 5.65843 24.0113 6.62624 23.7173 6.65296C23.4234 6.67968 20.4161 6.51936 16.8447 8.5589C13.2733 10.5984 12.6053 12.7181 11.8008 13.1753V13.1753Z" fill="#CB6C22"/>
			<path d="M15.9066 16.4231L11.1031 17.4711C11.1031 17.4711 11.0289 18.3825 11.0764 18.6527C11.2367 19.5641 12.445 21.0158 13.1694 21.2563C13.8938 21.4967 15.3692 21.5234 15.8531 21.3097C16.337 21.0959 17.7858 20.048 17.9728 19.4839C18.1599 18.9198 18.1094 16.5597 17.7353 16.1827C17.3613 15.8086 15.9066 16.4231 15.9066 16.4231Z" fill="#DB0D27"/>
			<path d="M12.5251 14.9209C12.0115 15.3187 11.0229 16.6666 11.1031 17.6314C11.1833 18.5992 12.8487 20.2884 13.3029 20.4487C13.7572 20.6091 15.2356 20.6358 15.6126 20.5289C15.9897 20.422 17.4384 19.3473 17.6522 18.9733C17.8659 18.5962 18.0559 16.5033 17.7056 16.1292C17.3553 15.7552 16.3103 14.6537 15.479 14.4103C14.6448 14.1698 13.009 14.5439 12.5251 14.9209V14.9209Z" fill="#ED6D30"/>
			<path d="M24.8188 19.4305C24.8188 19.4305 20.5675 19.1247 20.5141 19.3919C20.4606 19.6591 20.3627 20.6922 20.6328 21.5235C20.8228 22.1142 21.277 23.1355 22.6723 23.7233C24.0677 24.3111 25.4095 23.6699 25.7598 23.3997C26.4159 22.895 26.8345 22.2716 26.9414 21.8975C27.0483 21.5235 24.8188 19.4305 24.8188 19.4305V19.4305Z" fill="#DB0D27"/>
			<path d="M22.7525 17.2009C22.0964 17.4384 20.526 18.4092 20.4963 19.4839C20.4696 20.5586 21.2474 21.8737 21.6511 22.1676C22.0549 22.4615 23.3967 23.2423 24.3883 23.1889C25.3828 23.1355 26.7514 22.3309 26.9385 21.9005C27.1255 21.47 27.2057 20.2083 27.1255 19.564C27.0453 18.9198 25.65 17.4711 24.9524 17.2544C24.2547 17.0406 23.3433 16.9872 22.7525 17.2009V17.2009Z" fill="#ED6D30"/>
			<path d="M22.5922 27.2413C22.5922 27.2413 18.7002 26.1666 18.6467 26.2467C18.5933 26.3269 18.0559 26.9978 18.1895 27.3214C18.3231 27.645 19.6917 28.7434 20.2558 29.2274C20.8199 29.7113 22.5239 30.7117 22.7258 30.6761C23.2097 30.5959 23.5838 29.8181 23.5838 29.8181L22.5922 27.2413V27.2413Z" fill="#DB0D27"/>
			<path d="M22.9395 25.6025C21.9895 24.9049 20.6031 24.9583 19.8521 25.3086C19.101 25.6589 18.6438 26.1131 18.5636 26.4635C18.4835 26.8138 19.1039 27.4877 19.3474 27.6747C19.5878 27.8617 20.3181 28.4139 20.3181 28.4139C20.3181 28.4139 21.4017 29.263 21.8025 29.5717C22.3606 30.0022 23.0613 30.2456 23.2483 30.2724C23.4353 30.2991 24.3081 29.171 24.1478 27.6658C24.0647 26.8969 23.7381 26.1903 22.9395 25.6025V25.6025Z" fill="#ED6D30"/>
			<path d="M29.7053 23.4561L28.2566 23.4026C28.2566 23.4026 27.6658 24.5041 28.0696 25.7391C28.3991 26.7484 29.0908 27.3511 30.2427 27.6717C31.3975 27.9953 32.0417 27.8795 32.0417 27.8795L32.0596 27.0691L29.7053 23.4561Z" fill="#DB0D27"/>
			<path d="M31.1006 21.6036C31.1006 21.6036 29.3134 21.3928 28.3902 23.0523C27.6836 24.3259 28.1764 25.3887 28.7405 26.0062C29.3045 26.6237 30.1625 27.0275 30.8067 27.0809C31.4509 27.1344 32.0744 27.0839 32.0744 27.0839C32.0744 27.0839 31.825 25.4362 31.5816 24.0587C31.4331 23.2334 31.1006 21.6036 31.1006 21.6036V21.6036Z" fill="#ED6D30"/>
			<path d="M25.8934 9.98093C25.8934 9.98093 22.4319 10.0878 22.2151 10.4381C21.9984 10.7884 22.0014 12.3441 22.1083 12.9616C22.2151 13.5791 23.1562 15.0812 25.0355 15.108C26.9147 15.1347 27.5767 14.6656 28.307 13.2466C29.0373 11.8275 28.2773 10.2392 28.2773 10.2392L25.8934 9.98093V9.98093Z" fill="#DB0D27"/>
			<path d="M25.9202 8.39561C25.1691 8.25014 24.1211 8.55593 23.6105 8.90624C23.0998 9.25655 22.2686 9.98093 22.2152 10.5183C22.1617 11.0556 22.6456 12.6112 22.8327 12.9081C23.0197 13.202 23.7975 14.0006 24.0409 14.1164C24.605 14.3836 26.1606 14.25 26.6178 14.0897C27.075 13.9294 28.3367 12.9081 28.4703 12.3708C28.6039 11.8334 28.7642 10.922 28.1467 9.82061C27.5292 8.71921 26.6178 8.53218 25.9202 8.39561V8.39561Z" fill="#ED6D30"/>
			<path d="M30.8097 30.9255L27.7192 30.7919C27.7192 30.7919 27.3036 31.6261 27.4283 32.3564C27.5292 32.962 28.031 33.7873 28.9305 34.1347C29.4411 34.3306 30.7771 34.203 31.1036 33.9803C31.7627 33.5291 31.9735 32.7097 31.9527 32.2881C31.9438 32.0684 30.8097 30.9255 30.8097 30.9255V30.9255Z" fill="#DB0D27"/>
			<path d="M30.1358 29.6133C29.3342 29.4916 28.4109 29.925 28.0131 30.3377C27.6153 30.7503 27.5351 31.2669 27.6865 31.8903C27.9626 33.0303 28.6929 33.3539 29.0314 33.5291C29.5331 33.7873 30.9106 33.7369 31.344 33.4073C31.7745 33.0808 32.1011 32.5227 32.0001 31.6647C31.8962 30.8038 31.5162 29.8211 30.1358 29.6133Z" fill="#ED6D30"/>
			<path d="M10.6875 9.21203C10.7142 9.85328 11.8364 9.74343 12.2788 9.6989C12.632 9.66328 13.5167 9.58906 13.5167 9.01312C13.5167 8.43719 12.7448 8.44015 12.1689 8.46094C11.6138 8.48172 10.6638 8.70437 10.6875 9.21203V9.21203ZM16.717 5.43578C16.717 5.85734 17.1802 5.8989 17.4681 5.92265C17.7561 5.94344 18.1302 5.83359 18.1539 5.50406C18.1747 5.17156 17.8897 4.97265 17.4681 4.95187C17.0258 4.92515 16.717 5.07953 16.717 5.43578ZM19.478 6.45109C19.9025 6.91125 20.5378 6.29672 20.7605 6.00875C20.9802 5.72078 21.0247 5.27844 20.7813 5.05875C20.5378 4.83906 20.0747 5.07953 19.7659 5.3675C19.4572 5.65547 19.2138 6.16312 19.478 6.45109ZM24.2725 4.10875C24.7891 4.69359 25.6411 3.71094 25.9944 3.37844C26.3477 3.04594 26.6356 2.58281 26.3031 2.20875C25.9706 1.83469 25.2195 2.36312 24.9345 2.69562C24.6466 3.02515 23.94 3.73469 24.2725 4.10875ZM7.99188 14.0273C8.4936 14.1461 8.65688 13.5523 8.74297 13.0981C8.83204 12.635 8.83204 12.1927 8.45501 12.1273C8.0275 12.0531 7.79297 12.4806 7.72469 12.8992C7.66829 13.2762 7.52876 13.9175 7.99188 14.0273V14.0273Z" fill="#FCC12B"/>
		</g>
	</symbol>

	<symbol id="icon-cart" viewBox="0 0 18 18">
		<g>
			<path d="M6.33333 16.3333C7.06971 16.3333 7.66667 15.7364 7.66667 15C7.66667 14.2636 7.06971 13.6667 6.33333 13.6667C5.59695 13.6667 5 14.2636 5 15C5 15.7364 5.59695 16.3333 6.33333 16.3333Z"/>
			<path d="M14.3333 16.3333C15.0697 16.3333 15.6667 15.7364 15.6667 15C15.6667 14.2636 15.0697 13.6667 14.3333 13.6667C13.597 13.6667 13 14.2636 13 15C13 15.7364 13.597 16.3333 14.3333 16.3333Z"/>
			<path d="M4.78002 4.99999H16.3334L15.2134 10.5933C15.1524 10.9003 14.9854 11.176 14.7417 11.3722C14.4979 11.5684 14.1929 11.6727 13.88 11.6667H6.83335C6.50781 11.6694 6.1925 11.553 5.94689 11.3393C5.70128 11.1256 5.54233 10.8295 5.50002 10.5067L4.48669 2.82666C4.44466 2.50615 4.28764 2.21182 4.04482 1.99844C3.80201 1.78505 3.48994 1.66715 3.16669 1.66666H1.66669" />
		</g>
	</symbol>

	<symbol id="icon-cart2" viewBox="0 0 31 31">
		<g>
			<path d="M10.6667 28.7917C12.0014 28.7917 13.0833 27.7097 13.0833 26.375C13.0833 25.0403 12.0014 23.9583 10.6667 23.9583C9.33198 23.9583 8.25 25.0403 8.25 26.375C8.25 27.7097 9.33198 28.7917 10.6667 28.7917Z"/>
			<path d="M25.1667 28.7917C26.5014 28.7917 27.5833 27.7097 27.5833 26.375C27.5833 25.0403 26.5014 23.9583 25.1667 23.9583C23.832 23.9583 22.75 25.0403 22.75 26.375C22.75 27.7097 23.832 28.7917 25.1667 28.7917Z"/>
			<path d="M7.85117 8.24999H28.7916L26.7616 18.3879C26.6511 18.9442 26.3484 19.4439 25.9066 19.7996C25.4648 20.1553 24.912 20.3442 24.3449 20.3333H11.5728C10.9828 20.3383 10.4113 20.1273 9.96612 19.74C9.52095 19.3527 9.23286 18.8159 9.15617 18.2308L7.3195 4.31083C7.24334 3.72991 6.95872 3.19643 6.51862 2.80968C6.07852 2.42292 5.5129 2.20922 4.927 2.20833H2.20825" />
		</g>
	</symbol>

	<symbol id="icon-arrow" viewBox="0 0 10 6">
		<g>
			<path d="M10 5C10 5.16927 9.93815 5.31576 9.81445 5.43945C9.69075 5.56315 9.54427 5.625 9.375 5.625H0.625C0.455729 5.625 0.309245 5.56315 0.185547 5.43945C0.061849 5.31576 0 5.16927 0 5C0 4.83073 0.061849 4.68424 0.185547 4.56055L4.56055 0.185547C4.68424 0.061849 4.83073 0 5 0C5.16927 0 5.31576 0.061849 5.43945 0.185547L9.81445 4.56055C9.93815 4.68424 10 4.83073 10 5Z"/>
		</g>
	</symbol>

	<symbol id="icon-trash" viewBox="0 0 20 20">
		<g>
			<path d="M2.5 5H4.16667H17.5"/>
			<path d="M6.66663 5.00001V3.33334C6.66663 2.89131 6.84222 2.46739 7.15478 2.15483C7.46734 1.84227 7.89127 1.66667 8.33329 1.66667H11.6666C12.1087 1.66667 12.5326 1.84227 12.8451 2.15483C13.1577 2.46739 13.3333 2.89131 13.3333 3.33334V5.00001M15.8333 5.00001V16.6667C15.8333 17.1087 15.6577 17.5326 15.3451 17.8452C15.0326 18.1577 14.6087 18.3333 14.1666 18.3333H5.83329C5.39127 18.3333 4.96734 18.1577 4.65478 17.8452C4.34222 17.5326 4.16663 17.1087 4.16663 16.6667V5.00001H15.8333Z"/>
			<path d="M8.33337 9.16667V14.1667"/>
			<path d="M11.6666 9.16667V14.1667"/>
		</g>
	</symbol>

	<symbol id="icon-x" viewBox="0 0 10 9">
		<g>
			<path d="M8.74791 6.95572L6.49931 4.70712L8.74791 2.45852C9.16184 2.04459 9.16184 1.37338 8.74791 0.959454C8.33398 0.545525 7.66277 0.545525 7.24884 0.959454L5.00024 3.20805L2.75164 0.959454C2.33771 0.545525 1.66651 0.545525 1.25258 0.959454C0.838648 1.37338 0.838648 2.04459 1.25258 2.45852L3.50118 4.70712L1.25258 6.95572C0.838649 7.36965 0.838649 8.04086 1.25258 8.45479C1.66651 8.86872 2.33772 8.86872 2.75164 8.45479L5.00024 6.20619L7.24884 8.45479C7.66277 8.86872 8.33398 8.86872 8.74791 8.45479C9.16184 8.04086 9.16184 7.36965 8.74791 6.95572Z"/>
		</g>
	</symbol>
</svg>