<svg class="visually-hidden">

	<symbol id="icon-logo" viewBox="0 0 19 25">
		<g>
			<path d="M18.5169 22.6493L18.1587 20.9776C17.4207 17.5332 16.0683 14.2964 14.1387 11.3529V8.64058C15.0275 7.97178 15.6035 6.9084 15.6035 5.71289V4.24805C15.6035 3.84355 15.2756 3.51562 14.8711 3.51562H14.1387V0.732422C14.1387 0.32793 13.8107 0 13.4062 0C13.0018 0 12.6738 0.32793 12.6738 0.732422V3.52339C11.3584 3.6001 10.2059 4.29209 9.5 5.31528C8.79409 4.29209 7.6416 3.6001 6.32617 3.52339V0.732422C6.32617 0.32793 5.99824 0 5.59375 0C5.18926 0 4.86133 0.32793 4.86133 0.732422V3.51562H4.1289C3.72441 3.51562 3.39648 3.84355 3.39648 4.24805V5.71289C3.39648 6.9084 3.97246 7.97178 4.86133 8.64058V11.3529C2.93174 14.2964 1.57934 17.5332 0.841256 20.9776L0.483053 22.6493C0.406491 23.0066 0.605074 23.3658 0.948532 23.4909C3.69741 24.4923 6.57451 25 9.5 25C12.4255 25 15.3026 24.4923 18.0515 23.4909C18.3949 23.3658 18.5935 23.0067 18.5169 22.6493ZM12.918 4.98047H14.1387V5.71289C14.1387 6.92446 13.153 7.91016 11.9414 7.91016H10.2324V7.66602C10.2324 6.1852 11.4372 4.98047 12.918 4.98047ZM4.86133 4.98047H6.08203C7.56284 4.98047 8.76758 6.1852 8.76758 7.66602V7.91016H7.05859C5.84702 7.91016 4.86133 6.92446 4.86133 5.71289V4.98047ZM7.05859 9.375H11.9414C12.1922 9.375 12.4371 9.34956 12.6738 9.30132V10.8398H6.32617V9.30132C6.56289 9.34956 6.80781 9.375 7.05859 9.375ZM9.5 23.5352C6.95849 23.5352 4.45561 23.128 2.05073 22.3244L2.27353 21.2846C2.96118 18.0757 4.21054 15.0566 5.98901 12.3047L13.0109 12.3047C14.7894 15.0566 16.0388 18.0757 16.7264 21.2845L16.9492 22.3244C14.5444 23.128 12.0415 23.5352 9.5 23.5352Z" />
		</g>
	</symbol>

	<symbol id="icon-mobile" viewBox="0 0 17 17">
		<g>
			<path d="M2.25241 4.81643C0.750584 6.31823 0.750584 8.7618 2.25238 10.2636L3.05007 9.46592C1.98816 8.40402 1.98814 6.67613 3.0501 5.61417C4.11203 4.55224 5.83992 4.55224 6.90185 5.61414L7.69953 4.81646C6.19776 3.31463 3.75418 3.31466 2.25241 4.81643Z" />
			<path d="M3.84127 6.39119C3.2091 7.02336 3.20907 8.05201 3.84124 8.68421L4.63895 7.88653C4.54578 7.79335 4.49446 7.66947 4.49446 7.53772C4.49446 7.40599 4.54581 7.2821 4.63898 7.18893C4.73215 7.09576 4.85603 7.04444 4.98776 7.04444C5.11952 7.04444 5.24343 7.09576 5.33658 7.18893L6.13426 6.39122C5.50209 5.75902 4.47344 5.75902 3.84127 6.39119Z" />
			<path d="M13.7483 4.43513L11.8551 2.54848L7.92337 6.47367L9.44758 8.04781C9.19214 8.50125 8.6379 9.3699 7.69334 10.3145C6.74865 11.2592 5.87366 11.8197 5.41587 12.0792L3.87261 10.5556L0.0022583 14.4029L1.8851 16.2983C2.60485 17.0181 3.69998 17.2046 4.6102 16.7625C5.99921 16.0879 8.09546 14.8431 10.1943 12.7443C12.2931 10.6455 13.5379 8.54924 14.2125 7.16023C14.3723 6.83109 14.45 6.47787 14.45 6.12692C14.45 5.5072 14.2078 4.89464 13.7483 4.43513ZM13.1977 6.66732C12.5609 7.97846 11.3845 9.95865 9.39661 11.9466C7.40868 13.9345 5.42849 15.1109 4.11735 15.7477C3.63935 15.9799 3.06287 15.8806 2.6842 15.5019L1.59746 14.4079L3.87543 12.1436L5.19015 13.4415L5.5419 13.2849C5.59905 13.2595 6.95947 12.6438 8.49116 11.1121C10.0239 9.57947 10.6267 8.23054 10.6515 8.17386L10.8041 7.82683L9.50677 6.48705L11.8559 4.14178L12.9512 5.23327C13.3307 5.6133 13.4298 6.18952 13.1977 6.66732Z" />
		</g>
	</symbol>

	<symbol id="icon-cart" viewBox="0 0 24 24">
		<g>
			<path d="M23.8454 8.2243C23.7281 8.10906 23.5642 8.05442 23.4012 8.07624H17.0343V5.26295C17.0343 2.4826 14.7804 0.228699 12.0001 0.228699C9.21971 0.228699 6.96582 2.4826 6.96582 5.26295V8.07624H0.598861C0.421164 8.07624 0.243523 8.07624 0.154646 8.2243C0.0352739 8.33902 -0.0201042 8.5051 0.00659291 8.66851L2.22761 20.81C2.53789 22.5037 4.00034 23.7431 5.72199 23.7713H18.278C20.0046 23.7289 21.464 22.4797 21.7724 20.7804L23.9934 8.66851C24.0201 8.5051 23.9648 8.33902 23.8454 8.2243ZM8.1503 5.26295C8.1503 3.13682 9.87388 1.41324 12 1.41324C14.1261 1.41324 15.8497 3.13682 15.8497 5.26295V8.07624H8.1503V5.26295ZM20.5879 20.6323C20.3884 21.7547 19.4179 22.5759 18.278 22.5868H5.72199C4.58212 22.5759 3.61161 21.7547 3.41215 20.6323L1.30959 9.26078H22.6904L20.5879 20.6323Z" fill="black" />
			<path d="M16.4421 15.0354C16.7692 15.0354 17.0343 14.7702 17.0343 14.4431V12.6663C17.0343 12.3392 16.7692 12.074 16.4421 12.074C16.1149 12.074 15.8498 12.3392 15.8498 12.6663V14.4431C15.8497 14.7702 16.1149 15.0354 16.4421 15.0354Z" fill="black" />
			<path d="M7.55803 15.0354C7.88514 15.0354 8.1503 14.7702 8.1503 14.4431V12.6663C8.1503 12.3392 7.88514 12.074 7.55803 12.074C7.23092 12.074 6.96576 12.3392 6.96576 12.6663V14.4431C6.96576 14.7702 7.23092 15.0354 7.55803 15.0354Z" fill="black" />
		</g>
	</symbol>

	<symbol id="icon-arrow-scroll" viewBox="0 0 16 29">
		<g>
			<path d="M8 0V28M8 28L1 20.8108M8 28L15 20.8108" />
		</g>
	</symbol>

	<symbol id="icon-card-arrow" viewBox="0 0 32 24">
		<g>
			<path d="M0 12H31M31 12L20.186 1M31 12L20.186 23" />
		</g>
	</symbol>

	<symbol id="icon-card-quality" viewBox="0 0 62 61">
		<g>
			<path d="M37.3994 24.8337L28.2341 33.4905L23.8355 28.9652C23.3478 28.4632 22.5449 28.4518 22.0433 28.9394C21.5413 29.4276 21.5299 30.23 22.0175 30.7321L27.2931 36.1477C27.7832 36.6408 28.5753 36.6577 29.0858 36.1854L39.1667 26.677C39.4115 26.4461 39.5545 26.1273 39.564 25.7911C39.5734 25.455 39.4488 25.1287 39.2174 24.8844C38.7267 24.3744 37.9178 24.3521 37.3994 24.8337V24.8337Z" fill="black" />
			<path d="M30.5983 11.5111C20.1236 11.5111 11.6063 20.0284 11.6063 30.5031C11.6063 40.9783 20.1236 49.4956 30.5983 49.4956C41.0736 49.4956 49.5908 40.9783 49.5908 30.5031C49.5908 20.0284 41.0736 11.5111 30.5983 11.5111V11.5111ZM30.5983 46.9531C21.5219 46.9531 14.1488 39.5671 14.1488 30.5031C14.1488 21.4391 21.5219 14.0536 30.5983 14.0536C39.6837 14.0536 47.0484 21.4183 47.0484 30.5031C47.0484 39.5879 39.6837 46.9531 30.5983 46.9531V46.9531Z" fill="black" />
			<path d="M56.7351 23.5113L57.1547 15.9728C57.184 15.4668 56.9089 14.9916 56.4555 14.7651L49.7433 11.3711L46.3492 4.65886C46.1183 4.20946 45.6461 3.93585 45.1415 3.95969L37.5901 4.36688L31.2975 0.209557C30.8734 -0.0700149 30.3237 -0.0700149 29.8992 0.209557L23.6066 4.36688L16.0686 3.94727C15.5621 3.91748 15.0873 4.19258 14.8609 4.64645L11.4663 11.3586L4.75461 14.7527C4.30471 14.9831 4.03159 15.4554 4.05543 15.9604L4.47454 23.4989L0.317711 29.7915C0.0381393 30.2156 0.0381393 30.7653 0.317711 31.1898L4.46212 37.4949L4.04252 45.0334C4.01322 45.5394 4.28783 46.0146 4.7417 46.241L11.4539 49.6351L14.848 56.3473C15.0784 56.7972 15.5506 57.0703 16.0557 57.0465L23.5942 56.6269L29.8868 60.7837C30.3083 61.0722 30.8635 61.0722 31.2851 60.7837L37.5777 56.6269L45.1162 57.0465C45.6222 57.0758 46.0969 56.8007 46.3239 56.3473L49.718 49.6351L56.4302 46.241C56.8796 46.0101 57.1532 45.5384 57.1293 45.0334L56.7097 37.4949L60.8666 31.2023C61.1461 30.7782 61.1461 30.228 60.8666 29.8039L56.7351 23.5113ZM54.3704 36.4525C54.2154 36.68 54.1434 36.9536 54.1673 37.2282L54.5611 44.3595L48.2178 47.5629C47.976 47.6841 47.7798 47.8807 47.6587 48.1225L44.4548 54.4658L37.3235 54.072C37.0503 54.0621 36.7807 54.1326 36.5478 54.2751L30.5983 58.2035L24.6494 54.2751C24.4428 54.1356 24.1995 54.0601 23.9502 54.0591H23.8866L16.7548 54.4534L13.5514 48.1096C13.4303 47.8678 13.2341 47.6717 12.9918 47.5505L6.63563 44.3595L7.02991 37.2282C7.03984 36.9551 6.96883 36.6854 6.82632 36.4525L2.89841 30.5031L6.82632 24.5536C6.98174 24.3267 7.05375 24.0526 7.02991 23.7785L6.63563 16.6467L12.9794 13.4433C13.2212 13.3221 13.4174 13.126 13.5385 12.8841L16.7419 6.54038L23.8737 6.93467C24.1463 6.9441 24.416 6.87359 24.6494 6.73107L30.5983 2.80317L36.5478 6.73107C36.7752 6.8865 37.0493 6.9585 37.3235 6.93467L44.4548 6.54038L47.6587 12.8841C47.7798 13.126 47.976 13.3221 48.2178 13.4433L54.5611 16.6467L54.1673 23.7785C54.1573 24.0511 54.2284 24.3207 54.3704 24.5536L58.2988 30.5031L54.3704 36.4525Z" />
		</g>
	</symbol>

	<symbol id="icon-card-speed" viewBox="0 0 78 78">
		<g>
			<path d="M63.6611 50.349L57.7656 46.1565C58.7557 42.5158 58.7501 38.6761 57.7493 35.0383L63.6643 30.8978L58.9421 22.7273L52.3641 25.7368C49.7053 23.0589 46.3762 21.144 42.7246 20.1923L42.0973 13H32.6528L32.0256 20.1923C28.3747 21.1453 25.0467 23.0613 22.3893 25.74L15.8081 22.7305L11.0891 30.901L17.0041 35.0415C16.0028 38.678 15.9961 42.5166 16.9846 46.1565L11.0891 50.349L15.8081 58.4805L22.3893 55.4678C25.0471 58.1453 28.375 60.0602 32.0256 61.0123L32.6528 68.2045H42.0973L42.7246 61.0123C46.3751 60.06 49.703 58.1452 52.3608 55.4678L58.9421 58.4805L63.6643 50.3523L63.6611 50.349ZM43.8913 9.70129C44.3097 9.70085 44.712 9.86176 45.0147 10.1505C45.3174 10.4393 45.4971 10.8337 45.5163 11.2515L46.0948 17.8653C48.4973 18.7808 50.7386 20.0732 52.7346 21.6938L58.7471 18.889C59.1184 18.698 59.5491 18.6572 59.9497 18.7752C60.3503 18.8932 60.6901 19.1609 60.8986 19.5228L67.4148 30.8003C67.6242 31.1618 67.6863 31.59 67.5883 31.9961C67.4902 32.4022 67.2396 32.7549 66.8883 32.981L61.4478 36.79C61.8638 39.3835 61.8508 41.9673 61.4511 44.4568L66.8883 48.2593C67.2404 48.4855 67.4917 48.8388 67.5898 49.2457C67.6878 49.6525 67.6252 50.0815 67.4148 50.4433L60.8986 61.6785C60.6901 62.0404 60.3503 62.3081 59.9497 62.4261C59.5491 62.5441 59.1184 62.5034 58.7471 62.3123L52.7346 59.5075C50.7781 61.1 48.5486 62.4 46.0948 63.3393L45.5163 69.953C45.4963 70.3704 45.3162 70.7639 45.0136 71.052C44.711 71.3401 44.3091 71.5005 43.8913 71.5H30.8588C30.441 71.5005 30.0391 71.3401 29.7365 71.052C29.4339 70.7639 29.2539 70.3704 29.2338 69.953L28.6553 63.3393C26.2527 62.4226 24.0114 61.1291 22.0156 59.5075L16.0031 62.3123C15.6318 62.5046 15.2006 62.5464 14.7993 62.429C14.398 62.3116 14.0574 62.0439 13.8483 61.6818L7.33532 50.44C7.12595 50.0786 7.06383 49.6503 7.16187 49.2442C7.25991 48.8382 7.51058 48.4854 7.86182 48.2593L13.2991 44.4535C12.8919 41.9142 12.8919 39.3262 13.2991 36.7868L7.86507 32.981C7.51469 32.755 7.26462 32.4028 7.16662 31.9975C7.06862 31.5922 7.13018 31.1647 7.33857 30.8035L13.8451 19.5228C14.0536 19.1601 14.394 18.8918 14.7953 18.7737C15.1967 18.6557 15.6281 18.697 15.9998 18.889L22.0123 21.6938C24.0083 20.0732 26.2496 18.7808 28.6521 17.8653L29.2306 11.2515C29.2498 10.8337 29.4295 10.4393 29.7322 10.1505C30.0349 9.86176 30.4372 9.70085 30.8556 9.70129H43.8881H43.8913ZM37.3751 29.25C40.3919 29.25 43.2852 30.4485 45.4184 32.5817C47.5516 34.7149 48.7501 37.6082 48.7501 40.625C48.7501 43.6419 47.5516 46.5352 45.4184 48.6684C43.2852 50.8016 40.3919 52 37.3751 52C34.3582 52 31.465 50.8016 29.3317 48.6684C27.1985 46.5352 26.0001 43.6419 26.0001 40.625C26.0001 37.6082 27.1985 34.7149 29.3317 32.5817C31.465 30.4485 34.3582 29.25 37.3751 29.25ZM37.3751 32.5C35.2202 32.5 33.1536 33.3561 31.6298 34.8798C30.1061 36.4035 29.2501 38.4702 29.2501 40.625C29.2501 42.7799 30.1061 44.8466 31.6298 46.3703C33.1536 47.894 35.2202 48.75 37.3751 48.75C39.53 48.75 41.5966 47.894 43.1203 46.3703C44.644 44.8466 45.5001 42.7799 45.5001 40.625C45.5001 38.4702 44.644 36.4035 43.1203 34.8798C41.5966 33.3561 39.53 32.5 37.3751 32.5V32.5Z" />
		</g>
	</symbol>

	<symbol id="icon-card-responsibility" viewBox="0 0 63 63">
		<g>
			<path d="M24.7774 43.7903C24.4414 43.7903 24.1054 43.6617 23.8481 43.407L6.21598 25.7723C4.16848 23.7248 4.16848 20.3937 6.21598 18.3462C8.26873 16.2987 11.5972 16.3039 13.6395 18.3462L29.4184 34.125C29.9302 34.6369 29.9302 35.469 29.4184 35.9809C28.9065 36.4928 28.0744 36.4928 27.5625 35.9809L11.7836 20.202C10.7651 19.1835 9.10086 19.1809 8.07186 20.202C7.57836 20.6982 7.30273 21.357 7.30273 22.0579C7.30273 22.7614 7.57573 23.4203 8.07186 23.9164L25.7066 41.5485C26.2185 42.0604 26.2185 42.8925 25.7066 43.4044C25.4494 43.6617 25.1134 43.7903 24.7774 43.7903V43.7903Z" />
			<path d="M34.0594 30.7965C33.7234 30.7965 33.3874 30.6678 33.1301 30.4132L15.498 12.7785C14.4716 11.7521 12.81 11.7521 11.7836 12.7785C11.2901 13.2746 11.0145 13.9335 11.0145 14.6343C11.0145 15.3352 11.2875 15.9941 11.7836 16.4902L13.6395 18.3461C14.1514 18.858 14.1514 19.6901 13.6395 20.202C13.1276 20.7138 12.2955 20.7138 11.7836 20.202L9.92778 18.3461C8.93553 17.3538 8.38953 16.0361 8.38953 14.6343C8.38953 13.2326 8.93553 11.9148 9.92778 10.9226C11.9096 8.9407 15.3668 8.93545 17.3539 10.9226L34.986 28.5573C35.4979 29.0692 35.4979 29.9013 34.986 30.4132C34.7288 30.6705 34.3954 30.7965 34.0594 30.7965Z" />
			<path d="M39.6296 25.2289C39.2936 25.2289 38.9576 25.1002 38.7004 24.8456L24.7774 10.9226C23.751 9.89624 22.092 9.89624 21.0656 10.9226C20.0419 11.9464 20.0419 13.6106 21.0656 14.6344C21.5775 15.1462 21.5775 15.9784 21.0656 16.4902C20.5537 17.0021 19.7216 17.0021 19.2097 16.4902C17.1649 14.4454 17.1649 11.1116 19.2097 9.06674C21.2546 7.02186 24.5884 7.02186 26.6332 9.06674L40.5562 22.9897C41.0681 23.5016 41.0681 24.3337 40.5562 24.8456C40.3016 25.1002 39.9656 25.2289 39.6296 25.2289V25.2289Z" />
			<path d="M38.1964 59.4667C37.3117 59.4667 36.4166 59.367 35.5294 59.1648L13.4269 54.0986C12.4714 53.8991 11.5815 53.4108 10.857 52.6863C9.86473 51.6941 9.3161 50.3737 9.3161 48.9746C9.3161 47.5728 9.86473 46.2551 10.857 45.2628C11.5395 44.5803 12.369 44.1105 13.2641 43.8926C13.2904 43.8821 13.3166 43.8768 13.3429 43.8689L24.4729 41.1993C25.179 41.0234 25.8877 41.4671 26.0557 42.1706C26.2237 42.8767 25.788 43.5828 25.0845 43.7534L14.0306 46.4047C13.9965 46.4152 13.9624 46.4257 13.9256 46.4336C13.4846 46.5307 13.0646 46.7696 12.7129 47.1213C12.2167 47.6175 11.9411 48.2763 11.9411 48.9772C11.9411 49.6781 12.2141 50.337 12.7129 50.8331C13.062 51.1822 13.4951 51.429 13.9309 51.5261C13.9492 51.5287 13.965 51.5313 13.9807 51.5366L36.1174 56.6107C39.2227 57.3221 42.4174 56.4033 44.667 54.1511L55.4085 43.4069C57.1436 41.6718 58.0991 39.3644 58.0991 36.9101C58.0991 34.4557 57.1436 32.151 55.4085 30.4132L32.2061 7.21082C31.1797 6.18445 29.5207 6.18445 28.4944 7.21082C27.4706 8.23457 27.4706 9.89882 28.4944 10.9226C29.0062 11.4344 29.0062 12.2666 28.4944 12.7784C27.9825 13.2903 27.1504 13.2903 26.6385 12.7784C24.5936 10.7336 24.5936 7.39982 26.6385 5.35495C28.6834 3.31007 32.0171 3.31007 34.062 5.35495L57.2644 28.5573C59.4982 30.7886 60.7241 33.7522 60.7241 36.9101C60.7241 40.0679 59.4956 43.0316 57.2644 45.2628L46.5229 56.007C44.2706 58.2513 41.2886 59.4667 38.1964 59.4667V59.4667Z" />
		</g>
	</symbol>

	<symbol id="icon-slider-arrow" viewBox="0 0 29 16">
		<g>
			<path d="M8.34742e-08 8L28 8M28 8L20.8108 15M28 8L20.8108 1" />
		</g>
	</symbol>

	<symbol id="icon-instagram" viewBox="0 0 22 23">
		<g>
			<path d="M15.6094 0.5H6.39066C2.86683 0.5 0 3.36683 0 6.89066V16.1093C0 19.6332 2.86683 22.5 6.39066 22.5H15.6093C19.1332 22.5 22 19.6332 22 16.1094V6.89066C22 3.36683 19.1332 0.5 15.6094 0.5ZM20.2812 16.1093C20.2812 18.6854 18.1854 20.7812 15.6094 20.7812H6.39066C3.81455 20.7812 1.71875 18.6854 1.71875 16.1094V6.89066C1.71875 4.31455 3.81455 2.21875 6.39066 2.21875H15.6093C18.1854 2.21875 20.2812 4.31455 20.2812 6.89066V16.1093Z" />
			<path d="M11 5.57031C7.73034 5.57031 5.07031 8.23034 5.07031 11.5C5.07031 14.7697 7.73034 17.4297 11 17.4297C14.2697 17.4297 16.9297 14.7697 16.9297 11.5C16.9297 8.23034 14.2697 5.57031 11 5.57031ZM11 15.7109C8.6781 15.7109 6.78906 13.8219 6.78906 11.5C6.78906 9.1781 8.6781 7.28906 11 7.28906C13.3219 7.28906 15.2109 9.1781 15.2109 11.5C15.2109 13.8219 13.3219 15.7109 11 15.7109Z" />
			<path d="M17.0156 6.34375C17.4902 6.34375 17.875 5.95899 17.875 5.48438C17.875 5.00976 17.4902 4.625 17.0156 4.625C16.541 4.625 16.1562 5.00976 16.1562 5.48438C16.1562 5.95899 16.541 6.34375 17.0156 6.34375Z" />
		</g>
	</symbol>

	<symbol id="icon-facebook" viewBox="0 0 21 21">
		<g>
			<path d="M18.5391 0H2.46094C1.1039 0 0 1.1039 0 2.46094V18.5391C0 19.8961 1.1039 21 2.46094 21H18.5391C19.8961 21 21 19.8961 21 18.5391V2.46094C21 1.1039 19.8961 0 18.5391 0ZM19.3594 18.5391C19.3594 18.9914 18.9914 19.3594 18.5391 19.3594H13.6992V13.3711H16.3253L16.6314 10.8281H13.6992V8.08008C13.6992 7.37865 14.2283 6.84961 14.9297 6.84961H16.7754V4.4707C16.2896 4.40213 15.3525 4.30664 14.9297 4.30664C13.973 4.30664 13.0141 4.71023 12.2989 5.41374C11.5621 6.13857 11.1562 7.08801 11.1562 8.08729V10.8281H8.49023V13.3711H11.1562V19.3594H2.46094C2.00864 19.3594 1.64062 18.9914 1.64062 18.5391V2.46094C1.64062 2.00864 2.00864 1.64062 2.46094 1.64062H18.5391C18.9914 1.64062 19.3594 2.00864 19.3594 2.46094V18.5391Z" />
		</g>
	</symbol>

	<symbol id="icon-twitter" viewBox="0 0 23 23">
		<g>
			<path d="M20.2712 5.16525L20.2598 5.12109C21.2343 4.53688 22.0211 3.5738 22.3711 2.4707C21.4584 3.01367 20.3904 3.42561 19.3164 3.63867C18.4552 2.7211 17.3061 2.15625 15.9473 2.15625C13.3429 2.15625 11.1855 4.26475 11.1855 6.87305C11.1855 7.24419 11.238 7.60752 11.3203 7.95117V7.99609C7.43875 7.77436 3.92429 5.80031 1.61719 2.96484C1.21231 3.66248 0.988281 4.65939 0.988281 5.52539C0.988281 6.87305 1.78852 8.67805 3.05469 9.52344V9.61328C2.29865 9.58278 1.52429 9.06195 0.898438 8.71484C0.898438 8.73546 0.92584 8.76026 0.92584 8.78088C0.92584 11.0696 2.6034 13.0436 4.76172 13.4766C4.38559 13.5761 3.85582 13.6562 3.45898 13.6562C3.15361 13.6562 2.84877 13.5765 2.56055 13.5215C3.16102 15.3978 4.89648 16.6211 6.96289 16.6211V16.666C5.35446 17.913 3.31577 18.7773 1.12305 18.7773C0.742154 18.7773 0.269531 18.7324 0 18.6875C2.08622 20.0277 4.56631 20.8438 7.23242 20.8438C15.9102 20.8438 20.6641 13.7012 20.6641 7.45703V6.82812C21.5871 6.16144 22.3686 5.26098 23 4.3125C23 4.3125 21.3439 5.09724 20.2712 5.16525ZM18.8672 7.45703C18.8672 8.80523 18.6031 10.221 18.1035 11.5512C17.5785 12.9492 16.8227 14.2107 15.8574 15.3005C14.3434 17.0096 11.6181 19.0469 7.23242 19.0469C7.10354 19.0469 6.97488 19.0446 6.84623 19.0402C7.26966 18.7945 7.67661 18.5211 8.06384 18.2209L8.75977 17.6814V16.8008V16.6211V14.8242L8.0195 14.816C7.21005 14.807 6.55859 14.1483 6.55859 13.3388V11.8696L5.58689 11.6502C5.1569 11.5531 4.85156 11.1711 4.85156 10.7303V9.61328V9.47852L4.8291 8.5626L4.02999 8.02907C3.6849 7.73874 3.37215 7.32406 3.14934 6.87529C5.50724 8.59481 8.30758 9.62379 11.2178 9.79005L13.1172 9.89854V7.99609V7.95117V7.73892L13.0677 7.5325C13.0111 7.29626 12.9824 7.07439 12.9824 6.87305C12.9824 6.09931 13.2911 5.3687 13.8517 4.81576C14.4156 4.25949 15.1598 3.95312 15.9473 3.95312C16.7434 3.95312 17.4362 4.26106 18.0063 4.86841L18.4647 5.35684L18.5202 5.57112L18.5316 5.61528L18.8672 6.91262V7.45703Z" />
		</g>
	</symbol>

	<symbol id="icon-mastercard" viewBox="0 0 28 22">
		<g>
			<path d="M5.09031 21.8907V20.4346C5.09031 19.8763 4.75409 19.5124 4.1778 19.5124C3.8897 19.5124 3.57755 19.6094 3.36142 19.925C3.19342 19.658 2.95334 19.5124 2.59317 19.5124C2.35299 19.5124 2.11302 19.5851 1.92084 19.8521V19.5609H1.41663V21.8907H1.92084V20.6044C1.92084 20.1919 2.13697 19.9977 2.47319 19.9977C2.80919 19.9977 2.97741 20.2161 2.97741 20.6044V21.8907H3.48163V20.6044C3.48163 20.1919 3.72159 19.9977 4.03375 19.9977C4.36997 19.9977 4.53797 20.2161 4.53797 20.6044V21.8907H5.09031V21.8907ZM12.5575 19.5609H11.7412V18.8571H11.237V19.5609H10.7808V20.0219H11.2369V21.0898C11.2369 21.6238 11.453 21.9392 12.0293 21.9392C12.2454 21.9392 12.4854 21.8665 12.6536 21.7694L12.5094 21.3325C12.3654 21.4296 12.1974 21.4539 12.0773 21.4539C11.8372 21.4539 11.7412 21.3083 11.7412 21.0655V20.0219H12.5575V19.5609V19.5609ZM16.8314 19.5123C16.5433 19.5123 16.3512 19.658 16.2311 19.8521V19.5609H15.7269V21.8907H16.2311V20.5802C16.2311 20.1919 16.3991 19.9735 16.7113 19.9735C16.8073 19.9735 16.9274 19.9978 17.0235 20.022L17.1675 19.5367C17.0715 19.5124 16.9274 19.5124 16.8314 19.5124V19.5123ZM10.3726 19.755C10.1324 19.5851 9.79628 19.5124 9.43611 19.5124C8.85992 19.5124 8.4758 19.8036 8.4758 20.2647C8.4758 20.6531 8.76389 20.8714 9.26811 20.9442L9.50819 20.9686C9.77233 21.017 9.91638 21.0898 9.91638 21.2112C9.91638 21.381 9.72431 21.5024 9.38809 21.5024C9.05199 21.5024 8.78784 21.381 8.61973 21.2598L8.37966 21.648C8.6438 21.8422 9.00397 21.9392 9.36403 21.9392C10.0364 21.9392 10.4206 21.6238 10.4206 21.1869C10.4206 20.7743 10.1084 20.5559 9.62817 20.4831L9.38809 20.4588C9.17197 20.4345 9.00397 20.3861 9.00397 20.2405C9.00397 20.0706 9.17197 19.9735 9.43611 19.9735C9.72431 19.9735 10.0124 20.0948 10.1565 20.1676L10.3726 19.755V19.755ZM23.7705 19.5124C23.4823 19.5124 23.2902 19.658 23.1701 19.8521V19.5609H22.6659V21.8907H23.1701V20.5802C23.1701 20.1919 23.3382 19.9735 23.6503 19.9735C23.7464 19.9735 23.8665 19.9978 23.9625 20.022L24.1066 19.5367C24.0105 19.5124 23.8665 19.5124 23.7705 19.5124V19.5124ZM17.3356 20.7258C17.3356 21.4296 17.8158 21.9392 18.5602 21.9392C18.8963 21.9392 19.1364 21.8665 19.3764 21.6723L19.1364 21.2598C18.9443 21.4054 18.7522 21.4781 18.5361 21.4781C18.1279 21.4781 17.8398 21.1869 17.8398 20.7258C17.8398 20.289 18.1279 19.9977 18.5361 19.9735C18.7522 19.9735 18.9443 20.0462 19.1364 20.1919L19.3764 19.7794C19.1364 19.5851 18.8963 19.5124 18.5602 19.5124C17.8158 19.5124 17.3356 20.022 17.3356 20.7258ZM21.9937 20.7258V19.5609H21.4895V19.8521C21.3213 19.6338 21.0813 19.5124 20.7691 19.5124C20.1208 19.5124 19.6166 20.022 19.6166 20.7258C19.6166 21.4296 20.1208 21.9392 20.7691 21.9392C21.1052 21.9392 21.3454 21.8179 21.4895 21.5995V21.8907H21.9937V20.7258V20.7258ZM20.1448 20.7258C20.1448 20.3132 20.4089 19.9735 20.8411 19.9735C21.2493 19.9735 21.5375 20.289 21.5375 20.7258C21.5375 21.1384 21.2493 21.4781 20.8411 21.4781C20.4089 21.4538 20.1448 21.1384 20.1448 20.7258V20.7258ZM14.1182 19.5124C13.4459 19.5124 12.9656 19.9977 12.9656 20.7258C12.9656 21.4539 13.4458 21.9392 14.1422 21.9392C14.4783 21.9392 14.8145 21.8422 15.0787 21.6238L14.8385 21.2598C14.6464 21.4054 14.4063 21.5024 14.1663 21.5024C13.8541 21.5024 13.5419 21.3568 13.4699 20.9441H15.1747V20.7501C15.1988 19.9977 14.7665 19.5124 14.1181 19.5124H14.1182ZM14.1182 19.9492C14.4303 19.9492 14.6465 20.1434 14.6944 20.5075H13.4939C13.5419 20.1919 13.7581 19.9492 14.1182 19.9492ZM26.6277 20.7258V18.6387H26.1235V19.8521C25.9553 19.6338 25.7153 19.5124 25.4031 19.5124C24.7548 19.5124 24.2506 20.022 24.2506 20.7258C24.2506 21.4296 24.7548 21.9392 25.4031 21.9392C25.7393 21.9392 25.9794 21.8179 26.1235 21.5995V21.8907H26.6277V20.7258V20.7258ZM24.7789 20.7258C24.7789 20.3132 25.0429 19.9735 25.4752 19.9735C25.8834 19.9735 26.1715 20.289 26.1715 20.7258C26.1715 21.1384 25.8834 21.4781 25.4752 21.4781C25.0429 21.4538 24.7789 21.1384 24.7789 20.7258V20.7258ZM7.92345 20.7258V19.5609H7.41923V19.8521C7.25113 19.6338 7.01105 19.5124 6.69889 19.5124C6.05063 19.5124 5.54641 20.022 5.54641 20.7258C5.54641 21.4296 6.05063 21.9392 6.69889 21.9392C7.03511 21.9392 7.27519 21.8179 7.41923 21.5995V21.8907H7.92345V20.7258V20.7258ZM6.05063 20.7258C6.05063 20.3132 6.31477 19.9735 6.74691 19.9735C7.15509 19.9735 7.4433 20.289 7.4433 20.7258C7.4433 21.1384 7.15509 21.4781 6.74691 21.4781C6.31477 21.4538 6.05063 21.1384 6.05063 20.7258V20.7258Z" fill="black" />
			<path d="M10.2045 1.86865H17.7677V15.6049H10.2045V1.86865Z" fill="#FF5F00" />
			<path d="M10.6847 8.73687C10.6847 5.94597 11.9813 3.47047 13.9741 1.86867C12.5095 0.703779 10.6608 0 8.64391 0C3.86564 0 0 3.90727 0 8.73687C0 13.5664 3.86564 17.4737 8.6438 17.4737C10.6607 17.4737 12.5094 16.77 13.9741 15.605C11.9813 14.0275 10.6847 11.5278 10.6847 8.73687V8.73687Z" fill="#EB001B" />
			<path d="M27.9722 8.73687C27.9722 13.5664 24.1066 17.4737 19.3284 17.4737C17.3116 17.4737 15.4628 16.77 13.9982 15.605C16.015 14.0033 17.2876 11.5278 17.2876 8.73687C17.2876 5.94597 15.991 3.47047 13.9982 1.86867C15.4627 0.703779 17.3116 0 19.3284 0C24.1066 0 27.9724 3.93159 27.9724 8.73687H27.9722Z" fill="#F79E1B" />
		</g>
	</symbol>


	<symbol id="icon-visa" viewBox="0 0 68 22">
		<linearGradient id="gradient-visa" x1="31.1981" y1="22.3517" x2="31.8324" y2="-0.152282" gradientUnits="userSpaceOnUse">
			<stop offset="1" stop-color="#222357" />
			<stop offset="1" stop-color="#254AA5" />
		</linearGradient>
		<g>
			<path fill="url(#gradient-visa)" d="M35.0954 7.00512C35.0567 10.0576 37.8158 11.7608 39.8941 12.7736C42.0294 13.8127 42.7467 14.479 42.7382 15.4083C42.7223 16.8304 41.0349 17.458 39.4559 17.4824C36.7012 17.5251 35.0994 16.7387 33.8261 16.1439L32.8337 20.7875C34.1113 21.3762 36.4769 21.8896 38.9301 21.9121C44.6885 21.9121 48.4558 19.0696 48.4762 14.6624C48.4987 9.06915 40.7396 8.75955 40.7926 6.25951C40.8109 5.50143 41.5343 4.69247 43.1193 4.48678C43.9039 4.38288 46.0697 4.30336 48.5252 5.43411L49.489 0.941339C48.1685 0.460519 46.4713 0.000109154 44.3582 0.000109154C38.9383 0.000109154 35.1262 2.88131 35.0954 7.00512V7.00512ZM58.7497 0.387097C57.6982 0.387097 56.8121 1.00045 56.4166 1.94167L48.191 21.5821H53.9452L55.0903 18.4176H62.1218L62.786 21.5821H67.8577L63.432 0.387097H58.7497V0.387097ZM59.5547 6.11266L61.2153 14.0716H56.6674L59.5547 6.11266V6.11266ZM28.1188 0.387362L23.5831 21.5818H29.0664L33.6 0.386832H28.1188V0.387362ZM20.0072 0.386832L14.2999 14.8133L11.9912 2.54707C11.7203 1.17777 10.6505 0.387097 9.46252 0.387097H0.132933L0.0022583 1.00257C1.91758 1.41818 4.09373 2.08852 5.41214 2.80577C6.21898 3.24392 6.44905 3.62693 6.71411 4.66809L11.0868 21.5821H16.8813L25.7651 0.387097H20.0072" />
		</g>
	</symbol>

	<symbol id="icon-pagination-arrow" viewBox="0 0 21 11">
		<g>
			<path d="M-2.18557e-07 5.5L20 5.5M20 5.5L14.8649 10.5M20 5.5L14.8649 0.499999" />
		</g>
	</symbol>

	<symbol id="icon-x" viewBox="0 0 14 14">
		<g>
			<path d="M1 1L13 13M13 1L1 13" stroke="black" />
		</g>
	</symbol>
</svg>